<?xml version="1.0" encoding="iso-8859-1"?>
<!-- Uploaded to: SVG Repo, www.svgrepo.com, Generator: SVG Repo Mixer Tools -->
<svg version="1.1" id="Layer_1" xmlns="http://www.w3.org/2000/svg" xmlns:xlink="http://www.w3.org/1999/xlink" 
	 viewBox="0 0 512 512" xml:space="preserve">
<polygon style="fill:#FFDA44;" points="89.946,276.757 20.757,512 491.243,512 422.054,276.757 256,249.081 "/>
<polygon style="fill:#FF9811;" points="89.946,276.757 20.757,512 256,512 256,249.081 "/>
<rect x="228.324" y="221.405" style="fill:#50412E;" width="55.351" height="249.081"/>
<rect x="131.459" y="456.649" style="fill:#786145;" width="249.081" height="55.351"/>
<rect x="131.459" y="456.649" style="fill:#282017;" width="124.541" height="55.351"/>
<circle style="fill:#FFFFFF;" cx="256" cy="256" r="76.108"/>
<path style="fill:#616064;" d="M339.027,132.924V83.027C339.027,37.173,301.854,0,256,0s-83.027,37.173-83.027,83.027v49.896
	c-49.632,28.712-83.027,82.371-83.027,143.833h332.108C422.054,215.295,388.659,161.636,339.027,132.924z"/>
<path d="M256,0c-45.854,0-83.027,37.173-83.027,83.027v49.896c-49.632,28.712-83.027,82.371-83.027,143.833H256
	C256,276.757,256,73.341,256,0z"/>
</svg>