<?xml version="1.0" encoding="iso-8859-1"?>
<!-- Uploaded to: SVG Repo, www.svgrepo.com, Generator: SVG Repo Mixer Tools -->
<svg version="1.1" id="Layer_1" xmlns="http://www.w3.org/2000/svg" xmlns:xlink="http://www.w3.org/1999/xlink" 
	 viewBox="0 0 512 512" xml:space="preserve">
<path d="M374.373,126.228v310.847c-0.144,41.322-33.603,74.78-74.924,74.924H115.638c-41.322-0.144-74.78-33.603-74.924-74.924
	V126.228"/>
<path d="M394.106,428.941h-42.905c-42.609-0.048-77.148-34.579-77.196-77.188v-88.658c0.048-42.609,34.587-77.14,77.196-77.188
	h42.897c42.609,0.048,77.14,34.579,77.188,77.188v88.658C471.238,394.362,436.716,428.885,394.106,428.941z M351.201,225.893
	c-20.533,0.024-37.178,16.661-37.202,37.194v88.666c0.024,20.533,16.669,37.17,37.202,37.194h42.897
	c20.533-0.024,37.17-16.661,37.194-37.194v-88.658c-0.024-20.533-16.661-37.17-37.194-37.194L351.201,225.893z"/>
<g style="opacity:0.25;">
	<rect x="40.738" y="126.228" style="fill:#FFFFFF;" width="62.974" height="384.74"/>
</g>
<g>
	<polygon style="fill:#E21B1B;" points="182.851,126.22 166.854,126.22 166.854,89.706 140.074,62.918 140.074,14.286 
		156.072,14.286 156.072,56.295 182.851,83.083 	"/>
	<rect x="213.647" style="fill:#E21B1B;" width="15.997" height="126.22"/>
	<rect x="260.623" y="34.107" style="fill:#E21B1B;" width="15.997" height="92.122"/>
</g>
</svg>