<?xml version="1.0" encoding="iso-8859-1"?>
<!-- Uploaded to: SVG Repo, www.svgrepo.com, Generator: SVG Repo Mixer Tools -->
<svg height="800px" width="800px" version="1.1" id="Layer_1" xmlns="http://www.w3.org/2000/svg" xmlns:xlink="http://www.w3.org/1999/xlink" 
	 viewBox="0 0 512.009 512.009" xml:space="preserve">
<path style="fill:#33691E;" d="M345.977,180.087c0,25.67,15.32,98.535-89.129,98.535c-47.167,0-81.657-72.864-81.657-98.535
	c0-25.67,38.234-46.476,85.393-46.476S345.977,154.416,345.977,180.087z"/>
<path style="fill:#FF7043;" d="M423.085,310.775H90.612v-34.997c0-9.668,7.831-17.499,17.499-17.499h297.476
	c9.668,0,17.499,7.831,17.499,17.499V310.775z"/>
<polygon style="fill:#FF5722;" points="388.088,485.761 125.609,485.761 90.612,310.775 423.085,310.775 "/>
<path style="fill:#D84315;" d="M414.335,512.009H99.361c-14.498,0-26.248-11.75-26.248-26.248v-8.749h367.47v8.749
	C440.583,500.258,428.833,512.009,414.335,512.009z"/>
<path style="fill:#E53935;" d="M206.732,35.321c0,0,18.225-20.053,5.101-27.709c-6.737-3.928-11.925,2.039-15.39,8.784
	c1.102-5.635,0.595-11.374-5.022-13.518c-12.398-4.742-30.623,5.101-38.296,12.398c-4.383,4.165-1.015,10.709,2.677,15.547
	c-5.398-4.9-13.465-9.37-19.065,0.49c-6.982,12.284,3.981,15.373,9.51,16.142c-4.13-0.114-11.392,0.919-12.424,9.747
	c-1.461,12.398,38.646,6.195,38.646,6.195c12.328-1.286,10.167-8.749,10.167-8.749s14.62,4.742,23.369-4.375
	S206.732,35.321,206.732,35.321z"/>
<path style="fill:#B71C1C;" d="M387.668,149.289c-0.429-25.924-24.131-16.422-24.131-16.422s17.779-10.604-2.502-26.659
	c-20.281-16.055-27.893-3.115-27.893-3.115s2.607-9.957-11.514-16.755c-14.121-6.798-34.848-19.983-32.031-5.46
	c0,0,5.433,32.46,14.139,55.287c8.697,22.827,7.953,14.043,17.752,14.568c9.799,0.534,24.201,7.612,30.649,16.23
	c6.448,8.618,9.379-11.724,9.379-11.724S388.105,175.213,387.668,149.289z"/>
<path style="fill:#7CB342;" d="M323.492,89.873c0-8.767-3.159-16.641-8.242-22.372c-3.333-3.762-4.9-8.924-3.482-13.745
	c1.26-4.305,1.951-8.959,1.951-13.833C313.719,17.875,299.685,0,282.37,0c-6.842,0-13.141,2.826-18.277,7.586
	c-4.121,3.823-10.018,5.608-15.206,3.456c-2.966-1.225-6.133-1.899-9.44-1.899c-12.993,0-23.973,10.132-28.216,24.262
	c-0.656-0.061-1.277-0.227-1.951-0.227c-12.302,0-22.608,9.817-25.539,23.089c-0.91,4.112-3.64,7.393-7.323,9.423
	c-8.084,4.453-13.614,13.448-13.614,23.816c0,10.464,5.635,19.502,13.841,23.903c3.78,2.03,6.711,5.171,8.093,9.231
	c4.375,12.826,16.58,22.092,31.104,22.092c4.348,0,8.504-0.831,12.301-2.345c7.306-2.914,15.862-0.49,19.266,6.606
	c6.273,13.106,18.321,21.987,32.232,21.987c20.438,0,37.001-19.1,37.001-42.653c0-3.106-0.324-6.107-0.901-9.003
	c-0.761-3.806,0.306-7.647,2.406-10.91C321.488,103.207,323.492,96.82,323.492,89.873z"/>
<path style="fill:#558B2F;" d="M487.033,180.209c-2.8-7.901-9.283-14.375-17.297-16.851c-6.055-1.872-9.082-1.409-15.101-10.158
	c-9.414-13.693-14.944-24.507-31.55-24.507c-6.649,0-12.783,2.161-17.752,5.818c-4.042,2.975-9.362,2.537-13.019-0.901
	c-4.917-4.62-11.514-7.463-18.811-7.463c-15.303,0-50.011,27.525-43.02,50.492c4.462,14.638,8.023,55.033,8.023,73.713
	c0,16.772,12.214,30.701,28.234,33.37c3.955,0.656,7.647,2.301,10.832,4.742c5.941,4.55,15.827,11.094,23.641,11.094
	c14.358,0,26.598-8.811,31.742-21.305c2.625-6.387,7.708-11.698,14.113-14.288c13.194-5.337,22.512-18.19,22.512-33.309
	c0-5.818-1.505-11.243-3.955-16.107c2.607-1.33,4.996-3.272,6.964-5.6c2.747-3.255,6.859-5.328,11.462-5.328
	c0.245,0,0.464,0.061,0.709,0.07C488.652,197.113,490.139,188.967,487.033,180.209z"/>
<g>
	<path style="fill:#7CB342;" d="M361.84,181.88c-4.182-3.858-16.344-24.148-20.78-20.237c-8.181-11.269-27.289,23.851-43.029,25.915
		c-11.182,1.47-21.786,6.746-26.624,16.93c-13.579,28.575,6.894,56.617,33.921,56.617c6.177,0,11.969-1.514,17.114-4.138
		c3.159-1.619,6.894-0.665,8.968,2.222c5.127,7.122,12.275,11.549,20.211,11.549c15.609,0,28.269-17.114,28.269-38.234
		S378.621,197.375,361.84,181.88z"/>
	<path style="fill:#7CB342;" d="M124.979,202.021c4.856-5.451,15.644-0.936,23.072-4.83c6.684-3.508,2.546-14.795,10.858-25.417
		c6.518-8.321,3.561-20.998-4.681-27.622c-6.221-5.005-19.616-6.842-23.378-7.577c-25.04-4.935-25.697-3.832-32.32,4.41
		c-5.871,7.297-0.017,15.434-5.451,29.301c-3.858,9.843-5.32,20.281,2.914,26.913C104.234,203.815,113.088,215.373,124.979,202.021z
		"/>
</g>
<path style="fill:#558B2F;" d="M113.718,189.51c-6.212-15.985-26.642-22.958-45.645-15.574c-5.538,2.152-10.097,6.299-13.824,10.639
	c-2.59,3.001-5.976,5.153-9.808,6.151c-8.688,2.257-19.458,9.301-20.893,19.808c-1.435,10.482,3.193-0.56,20.412,0.726
	c21.147,1.584,87.887,13.448,96.242,10.21C159.189,214.078,119.922,205.486,113.718,189.51z"/>
<path style="fill:#C62828;" d="M200.345,133.61c-4.742-13.483-12.398-7.481-12.398-7.481s8.382-6.378-8.382-14.708
	c-16.772-8.321-18.592,3.946-18.592,3.946s-11.663-11.663-24.927,5.101c-13.264,16.772,2.686,25.522,2.686,25.522
	s-6.929,12.756,1.461,24.988c8.382,12.223,25.154-0.096,25.154-0.096s16.93-2.319,26.712-9.615
	C201.833,153.97,205.079,147.093,200.345,133.61z"/>
<path style="fill:#D50000;" d="M270.34,167.278c0,0,26.974-4.873,16.405-19.817c-8.548-12.092-16.116-5.337-18.697-2.319
	c2.8-3.815,10.263-15.845-0.945-22.836c-13.448-8.382-18.995,7.288-18.995,7.288s-13.85-12.756-26.615,0
	c-12.756,12.756,4.742,22.967,4.742,22.967c-8.749,22.241,16.912,21.506,16.912,21.506c-5.32,13.491-1.601,22.241,9.878,25.154
	c11.488,2.914,9.292-13.491,9.292-13.491c7.288,13.85,26.248,6.929,26.878-4.742C289.833,169.334,270.34,167.278,270.34,167.278z"/>
<path style="fill:#B71C1C;" d="M160.238,205.425c0,0-5.6-29.266-10.455-38.147s-21.987-9.974-28.549-2.319
	c-6.562,7.656-24.341-1.61-24.787,15.311s13.491,26.615,21.506,29.529c8.023,2.914,16.361,5.302,15.836,8.749
	c-0.525,3.447-13.649-2.922-18.75-3.465c-5.101-0.542,0.367,8.566-1.461,18.776c-1.82,10.21-9.843,21.506-6.929,32.084
	c2.914,10.569,38.689-5.468,38.689-5.468s12.713,14.139,29.853,9.073c17.131-5.066,22.599-32.381,13.85-47.526
	c0,0,21.147-15.145,6.929-24.621s-17.499-0.901-17.499-0.901S159.512,179.903,160.238,205.425z"/>
<g>
	<path style="fill:#D50000;" d="M275.44,254.639c0,0,22.241-24.769-9.843-32.617c0,0,11.628-19.073-6.562-28.995
		c0,0-17.499-23.693-30.255-7.656c-4.707,5.915-6.798,11.514-7.594,16.247c-1.102-4.681-3.237-8.531-7.358-7.498
		c-9.475,2.38-30.99,13.15-4.742,27.902c0,0-18.592-11.497-26.248-3.473c0,0-7.656-10.937-18.592,7.288s16.405,18.592,16.405,18.592
		s-16.746,5.468-14.025,18.96c2.721,13.491,34.245,7.253,34.245,7.253s-4.567,7.516,15.941,7.332
		c20.517-0.184,15.233-15.311,15.233-15.311s12.844,25.522,35.041,12.398C289.291,261.928,275.44,254.639,275.44,254.639z"/>
	<path style="fill:#D50000;" d="M212.008,182.817c2.555-1.82,13.491-26.974,2.879-33.414c-10.604-6.439-16.002,10.018-16.002,10.018
		c-0.367-21.208-7.656-32.381-19.318-25.81c-7.918,4.453-2.914,16.107,1.129,23.151c-5.188-7.297-15.075-18.172-23.754-10
		c-12.424,11.689,3.788,22.074,3.788,22.074s-12.87-1.689-10.683,12.17c2.187,13.85,25.154,13.491,25.154,13.491
		c-2.914,10.937,13.124,10.569,29.161,2.021C220.39,187.944,212.008,182.817,212.008,182.817z"/>
</g>
</svg>